<?xml version="1.0" standalone="no"?>
<!DOCTYPE svg PUBLIC "-//W3C//DTD SVG 20010904//EN"
 "http://www.w3.org/TR/2001/REC-SVG-20010904/DTD/svg10.dtd">
<svg version="1.0" xmlns="http://www.w3.org/2000/svg"
 width="700.000000pt" height="700.000000pt" viewBox="0 0 700.000000 700.000000"
 preserveAspectRatio="xMidYMid meet">
<metadata>
Created by potrace 1.14, written by Peter Selinger 2001-2017
</metadata>
<g transform="translate(0.000000,700.000000) scale(0.100000,-0.100000)"
fill="#000000" stroke="none">
<path d="M1773 6868 c-12 -18 -31 -54 -42 -80 -19 -46 -75 -257 -86 -328 -3
-19 -8 -42 -10 -50 -2 -8 -6 -31 -9 -50 -3 -19 -10 -60 -16 -90 -6 -30 -13
-75 -16 -100 -2 -25 -6 -54 -9 -65 -2 -11 -13 -94 -24 -185 -19 -152 -23 -191
-37 -320 -2 -25 -6 -61 -9 -80 -2 -19 -7 -73 -10 -120 -3 -47 -8 -101 -10
-120 -2 -19 -7 -75 -10 -125 -3 -49 -7 -115 -10 -145 -20 -250 -27 -953 -12
-1105 58 -560 184 -982 407 -1371 54 -93 153 -248 170 -264 3 -3 32 -41 65
-84 80 -106 306 -334 430 -433 324 -259 723 -468 1165 -611 126 -41 192 -60
395 -112 366 -95 452 -126 577 -210 37 -25 38 -26 39 -95 3 -228 14 -471 25
-529 8 -45 33 -86 52 -86 49 0 203 133 240 207 37 72 45 195 28 418 -3 44 -8
128 -12 186 l-6 106 70 139 c103 204 173 381 223 559 26 93 66 278 75 340 3
28 8 59 10 70 9 48 18 210 18 325 0 249 -24 398 -110 681 -112 372 -270 624
-678 1084 -138 155 -666 676 -823 812 -28 25 -241 223 -352 329 -47 45 -108
103 -136 129 -113 105 -547 528 -957 930 -370 363 -484 461 -550 471 -29 5
-36 1 -55 -28z m242 -561 c22 -17 195 -186 385 -374 190 -188 370 -365 400
-393 30 -29 102 -98 160 -153 58 -56 175 -167 260 -247 173 -162 703 -689 795
-791 306 -337 503 -585 647 -818 40 -64 79 -125 85 -136 36 -56 126 -244 166
-345 79 -199 121 -370 142 -585 7 -65 7 -299 1 -355 -3 -19 -7 -71 -11 -115
-3 -44 -8 -93 -9 -110 -2 -16 -7 -61 -10 -100 -6 -66 -18 -155 -31 -235 -16
-99 -37 -126 -51 -63 -4 21 -8 40 -9 43 0 3 -4 28 -9 55 -39 254 -179 627
-338 904 -26 46 -48 85 -48 87 0 2 -13 22 -28 46 -16 24 -55 84 -87 133 -33
50 -62 92 -65 95 -3 3 -23 30 -44 60 -49 69 -187 241 -240 300 -144 158 -313
327 -396 395 -25 21 -47 41 -50 44 -5 7 -189 153 -250 199 -90 68 -392 262
-407 262 -3 0 -17 8 -31 18 -39 27 -162 95 -162 89 0 -3 69 -51 153 -108 404
-271 740 -585 1002 -934 104 -139 215 -305 215 -322 0 -21 -11 -16 -90 43
-123 91 -264 182 -373 238 -103 54 -285 131 -293 124 -2 -3 72 -55 164 -118
225 -152 352 -253 477 -377 181 -180 318 -383 412 -610 39 -94 97 -266 107
-319 3 -10 13 -59 24 -109 24 -108 51 -266 67 -401 9 -70 16 -118 31 -213 8
-52 12 -96 10 -98 -2 -3 -38 18 -79 46 -41 27 -92 60 -113 72 -48 28 -272 139
-278 139 -3 0 -29 11 -58 24 -29 13 -100 43 -158 66 -58 23 -129 53 -158 66
-29 13 -55 24 -57 24 -12 0 -350 173 -440 225 -562 325 -984 756 -1235 1263
-107 216 -167 380 -230 627 -33 128 -47 196 -75 366 -7 40 -14 99 -20 159 -3
30 -8 66 -10 80 -24 140 -24 727 0 1000 1 14 5 68 10 120 4 52 9 103 10 112 2
9 7 48 10 85 4 37 9 77 11 88 2 11 7 45 10 75 3 30 7 57 9 60 2 3 7 35 10 70
4 36 8 67 10 70 2 3 7 33 10 65 4 33 9 62 10 65 2 3 6 26 10 50 9 68 15 101
25 145 5 22 11 56 15 75 17 105 25 110 90 57z"/>
</g>
</svg>
